<?xml version="1.0" encoding="utf-8"?>
<!-- Generator: Adobe Illustrator 24.2.3, SVG Export Plug-In . SVG Version: 6.00 Build 0)  -->
<svg version="1.1" id="OBJECTS" xmlns="http://www.w3.org/2000/svg" xmlns:xlink="http://www.w3.org/1999/xlink" x="0px" y="0px"
	 viewBox="0 0 375 143.8" style="enable-background:new 0 0 375 143.8;" xml:space="preserve">
<style type="text/css">
	.st0{fill:#6F7173;}
	.st1{fill:#231F20;}
</style>
<g>
	<g>
		<path class="st0" d="M66,46.8c-2.5-3.1-4.9-7.4-2.9-11l-7.8,6.7c-1.4-0.4-2.8,0.3-4.1,1c-7.5,4.8-11.3,13.7-13.9,22.3
			c-0.5,1.8-0.9,4.1,0.5,5.3c0.8,0.7,2,0.8,3.1,1c2.1,0.3,4.1,1.1,5.9,2.1c2.1,1.3,3.9,3,6.1,4.1c2.2,1.1,4.9,1.6,7,0.3
			c3.7-2.3,2.6-8,4.4-12c1.6-3.4,5.3-5.6,6.1-9.2C71.4,53.6,68.5,50,66,46.8z"/>
		<path class="st0" d="M102.2,39.3l-11.4-4.2c-3.5-0.9-7.3,2.8-6.5,6.4c0.8,3.3,4.2,5,6.4,7.6c3,3.4,3.5,8.4,2.9,12.9
			c-0.5,4.5-2,8.9-2.6,13.4c-0.4,3.5-2,8.4,0.7,10.7c4.4,3.6,13.3-0.9,18.6,1.3c1.3,0.6,2.6,1.5,4,1.6c2.8,0.1,4.4-3.2,5-6
			C122.8,66.7,115.7,48.9,102.2,39.3z"/>
		<path class="st0" d="M94.8,105.1c-3-6.2-10.1-10.3-17-9.7c-4.4,0.4-8.5,2.4-12.8,2.6c-2.5,0.1-5.1-0.4-7.6-0.4
			c-2.5,0-5.3,0.6-7,2.5s-1.9,5.3,0.2,6.8l7.7,4c-0.2-0.2-0.6,0.1-0.5,0.4c0,0.3,0.3,0.5,0.5,0.7c4.2,3,9.5,4.2,14.6,4.4
			s10.3-0.7,15.4-1.6c2.9-0.5,6.3-1.4,7.3-4.2C96.1,108.8,95.6,106.8,94.8,105.1z"/>
		<g>
			<path class="st1" d="M119.8,75.2c-1.6,0-3,1.3-3.1,2.9c-0.2,2.8-0.7,5.5-1.5,8.1l-1.6-0.9c-1.4-0.8-2.9-1.7-4.8-2.1
				c-3-0.6-5.7,0.2-8.1,0.9c-1.6,0.4-3,0.9-4.3,0.9c-0.7,0-1.5-0.2-2.2-0.5c-1.2-0.6-2.5-0.4-3.4,0.5l-0.2,0.2
				c-1.4,1.4-1.1,3.8,0.7,4.7c1.6,0.8,3.3,1.3,5.1,1.3c2.2,0,4.3-0.6,6.2-1.1c2-0.6,3.6-1,5.1-0.7c0.9,0.2,2,0.8,3,1.4l2.4,1.4
				c-3.1,6.3-7.9,11.7-13.7,15.5c-2-4.1-4.3-8-7.8-11c-4.4-3.9-11.7-6.6-18.1-3.6c-0.9,0.4-1.7,0.9-2.4,1.3c-1.1,0.7-2,1.2-2.8,1.4
				c-1,0.2-2.2-0.2-3.5-0.6c-0.6-0.2-1.1-0.3-1.7-0.4c-5.3-1.2-11.7,0.1-15.4,4.3c-0.8-1-1.5-2-2.2-3c-0.9-1.4-2.7-1.9-4.1-1.1
				c-1.6,0.9-2.1,2.9-1.2,4.4c8.2,13,22.5,20.9,38,20.9c23.6,0,43-18.3,44.8-41.5C123.1,76.7,121.7,75.2,119.8,75.2z M51.8,103.5
				c2-2.7,6.3-3.7,9.7-2.8c0.5,0.1,0.9,0.2,1.4,0.4c1.8,0.5,3.9,1.1,6.2,0.7c2-0.3,3.6-1.3,5-2.2c0.6-0.4,1.2-0.8,1.8-1
				c3.8-1.8,8.5,0.1,11.3,2.6c2.7,2.4,4.7,5.7,6.4,9.4c-4.8,2.1-10.1,3.3-15.6,3.3C68.2,113.9,58.9,110.1,51.8,103.5z"/>
			<path class="st1" d="M131.9,50.7c-1.1-1.3-3-1.5-4.4-0.5l-0.3,0.2c-1.5,1.1-3.4,1.5-5.3,1.1l0,0l-9-1.9c-1.7-0.3-3.1,0.8-3.1,2.5
				v0c0,1.7,1.4,3.5,3.1,3.8l3.6,0.7c0.6,0.1,0.7,0.9,0.3,1.2l-5.9,4.3c-1,0.7-2.2,0.9-3.3,0.7c0,0,0,0,0,0
				c-1.5-0.3-3.1,0.6-3.6,2.1c-0.6,1.8,3.5,7.6,5.2,7.9c1.8,0.3,3.4-0.9,3.6-2.7c0,0,0,0,0,0c0.1-1.2,0.7-2.2,1.7-2.9l5.9-4.3
				c0.5-0.3,1.1,0,1.1,0.6l-0.6,4.7c-0.2,1.7,1,3.1,2.7,3.1l0,0c1.7,0,3.3-1.4,3.5-3.1l1-8.2l0,0c0.2-1.9,1.2-3.5,2.7-4.6l0.4-0.3
				C132.8,54.1,133,52.1,131.9,50.7z"/>
			<path class="st1" d="M67.9,86c12.7-3.2,26.2-7.8,32.1-9.8c1.6-0.6,2.5-2.4,1.9-4c-0.6-1.6-2.3-2.4-3.9-1.8
				C61.8,83.5,34.1,86.9,30.7,81.9c-0.5-0.7-1.3-3.2,2.7-9.6c-0.1,1-0.1,1.9-0.1,2.9v1.7c0,1.7,1.4,3.1,3.1,3.1
				c1.7,0,3.1-1.4,3.1-3.1v-1.7c0-0.1,0-0.2,0-0.3c0.7,0.1,1.4,0.1,2,0.2c1.4,0.1,2.8,0.2,3.8,0.7c0.7,0.3,1.4,0.9,1.9,1.6
				c1,1.2,2.7,1.5,3.9,0.7l0.2-0.1c1.5-1,1.9-3,0.7-4.4c-1.1-1.4-2.5-2.6-4.2-3.4c-2-0.9-4.1-1.1-5.9-1.3c-0.7-0.1-1.4-0.1-2-0.2
				c2-11.5,9-21.4,18.8-27c0,1,0.2,2,0.6,3c0.9,2.3,2.6,3.9,4.1,5.4c0.4,0.3,0.7,0.7,1,1c1.4,1.4,3.2,3.7,3.6,6.4
				c0.3,2.2-0.5,4.4-1.9,5.4c-0.4,0.3-0.9,0.5-1.4,0.8c-1.2,0.6-2.6,1.4-3.7,2.7c-1.7,2.2-1.9,4.8-1.7,7c0.2,1.8,1.9,3,3.7,2.6
				l0.2-0.1c1.5-0.4,2.4-1.8,2.3-3.3c-0.1-0.9-0.1-1.8,0.3-2.3c0.3-0.4,1-0.7,1.8-1.1c0.6-0.3,1.4-0.7,2.1-1.2
				c3.4-2.4,5.1-6.9,4.5-11.3c-0.5-3.4-2.3-6.9-5.3-9.9c-0.4-0.4-0.8-0.8-1.2-1.1c-1.2-1.2-2.6-2.2-2.7-3.4
				c-0.2-1.2,0.2-2.6,0.6-3.6c3.9-1.3,8.1-2.1,12.5-2.1c1.5,0,3,0.1,4.4,0.3c-1.8,2.9-2,6.4-0.6,9.2c1.2,2.5,3.3,4.1,5.2,5.5
				c1.1,0.8,2.2,1.6,2.9,2.5c2.2,2.7,1.7,6.9,0.3,10.6c-0.6,1.4,0,3,1.3,3.7l0.3,0.1c1.6,0.9,3.5,0.1,4.2-1.5
				c2.1-5.4,2.7-12-1.2-16.8c-1.2-1.5-2.7-2.6-4-3.5c-1.5-1.1-2.8-2.1-3.3-3.3c-0.5-1.1-0.2-2.4,0.4-3.2c0.4-0.6,1-1.3,1.9-1.6
				c5.4,1.7,10.4,4.6,14.6,8.5c1.2,1.1,3.1,1.1,4.3,0l0,0c1.3-1.2,1.3-3.3,0-4.6c-5.2-4.8-11.4-8.3-18.2-10.2l0-0.1
				c-0.1,0-0.2,0-0.3,0c-3.9-1.1-8-1.7-12.1-1.7c-18.6,0-34.6,11.3-41.4,27.5c-11.6,13-15.2,21.8-11.2,27.6
				c2.3,3.4,7.1,5.1,14.5,5.1C46.9,90.5,56.1,89,67.9,86z"/>
		</g>
	</g>
	<g>
		<g>
			<path class="st1" d="M170.6,49v6h-7.3v21.1h-7.5V55h-7.2v-6H170.6z"/>
			<path class="st1" d="M194.9,76.2l-5.5-10h-0.8v10h-7.6V49H193c2.2,0,4,0.4,5.5,1.1c1.5,0.8,2.7,1.8,3.4,3.1s1.2,2.8,1.2,4.5
				c0,1.9-0.5,3.5-1.6,4.9c-1,1.4-2.6,2.4-4.5,2.9l6.2,10.5H194.9z M188.7,61.1h3.7c2.1,0,3.1-0.9,3.1-2.8c0-0.9-0.3-1.6-0.8-2.1
				s-1.3-0.8-2.4-0.8h-3.7V61.1z"/>
			<path class="st1" d="M231.3,71.7h-9.6l-1.5,4.5h-7.9l9.9-27h8.7l9.9,27h-8L231.3,71.7z M229.4,66l-2.9-8.8l-3,8.8H229.4z"/>
			<path class="st1" d="M257.1,49l6.1,19.6l6.1-19.6h8l-9.3,27.2h-9.7L249.1,49H257.1z"/>
			<path class="st1" d="M295.2,55v4.5h8.8v5.7h-8.8v4.9h9.9v6h-17.5V49h17.5v6H295.2z"/>
			<path class="st1" d="M324.1,70.5h8.5v5.7h-16V49h7.6V70.5z"/>
		</g>
		<g>
			<path class="st1" d="M206.5,98.4h-5.7l-1,2.8h-3l5.2-14h3.2l5.2,14h-3L206.5,98.4z M205.7,96.2l-2.1-6l-2.1,6H205.7z"/>
			<path class="st1" d="M225.1,88.2c1.1,0.8,1.9,2,2.2,3.4h-3c-0.3-0.6-0.7-1.2-1.3-1.5c-0.6-0.4-1.3-0.6-2.1-0.6
				c-0.8,0-1.5,0.2-2.2,0.6c-0.6,0.4-1.1,0.9-1.5,1.6c-0.3,0.7-0.5,1.5-0.5,2.4c0,1.5,0.4,2.6,1.2,3.5c0.8,0.8,1.9,1.2,3.2,1.2
				c1,0,1.9-0.3,2.6-0.9c0.7-0.6,1.2-1.4,1.4-2.5h-4.8v-2h7.1v2.7c-0.2,0.9-0.6,1.8-1.2,2.6c-0.6,0.8-1.3,1.4-2.3,1.9
				c-0.9,0.5-2,0.7-3.2,0.7c-1.4,0-2.6-0.3-3.7-0.9c-1.1-0.6-1.9-1.5-2.5-2.5s-0.9-2.3-0.9-3.7s0.3-2.6,0.9-3.7
				c0.6-1.1,1.4-1.9,2.5-2.5s2.3-0.9,3.7-0.9C222.6,87,224,87.4,225.1,88.2z"/>
			<path class="st1" d="M234.8,89.3V93h5v2.2h-5V99h5.6v2.3H232V87.1h8.4v2.2H234.8z"/>
			<path class="st1" d="M256.8,101.2h-2.8l-6.3-9.6v9.6h-2.8V87.1h2.8l6.3,9.7v-9.7h2.8V101.2z"/>
			<path class="st1" d="M272.4,88.3c1.2,0.9,1.9,2.1,2.3,3.7h-3c-0.3-0.8-0.8-1.4-1.4-1.8c-0.6-0.4-1.4-0.7-2.3-0.7
				c-0.7,0-1.4,0.2-2,0.6c-0.6,0.4-1.1,0.9-1.4,1.6c-0.3,0.7-0.5,1.5-0.5,2.4c0,0.9,0.2,1.7,0.5,2.4c0.3,0.7,0.8,1.2,1.4,1.6
				c0.6,0.4,1.3,0.6,2,0.6c0.9,0,1.7-0.2,2.3-0.7c0.6-0.4,1.1-1,1.4-1.8h3c-0.4,1.6-1.1,2.8-2.3,3.7c-1.2,0.9-2.6,1.4-4.4,1.4
				c-1.3,0-2.5-0.3-3.6-0.9s-1.8-1.5-2.4-2.5c-0.6-1.1-0.9-2.3-0.9-3.7c0-1.4,0.3-2.6,0.9-3.7c0.6-1.1,1.4-1.9,2.4-2.5
				s2.2-0.9,3.6-0.9C269.8,87,271.2,87.4,272.4,88.3z"/>
			<path class="st1" d="M290.5,87.1l-4.8,9.2v4.9h-2.8v-4.9l-4.8-9.2h3.2l3,6.2l3-6.2H290.5z"/>
		</g>
	</g>
</g>
</svg>
